<svg xmlns="http://www.w3.org/2000/svg" width="32" height="30.315" viewBox="0 0 32 30.315">
    <defs>
        <style>
            .cls-1{fill:#e87722;fill-rule:evenodd}
        </style>
    </defs>
    <path id="expand_capacity_icon" d="M181.2 58.414h-1.248a2.092 2.092 0 0 0-2.094 2.067v6.884a.711.711 0 0 0 .725.676.7.7 0 0 0 .685-.676v-6.884a.7.7 0 0 1 .685-.676h1.247a.674.674 0 0 1 .683.676v6.884a.723.723 0 0 0 .766.676.667.667 0 0 0 .644-.676v-6.884a2.066 2.066 0 0 0-2.093-2.067zm.683-3.024a.674.674 0 0 1-.683.676h-1.248a.7.7 0 0 1-.685-.676v-.278h2.615zm4.75-1.712h-12.071A3.468 3.468 0 0 0 171.1 57.1v10.265a.685.685 0 0 0 1.369 0V57.1a2.026 2.026 0 0 1 2.093-1.988h3.3v.278a2.092 2.092 0 0 0 2.094 2.067h1.244a2.066 2.066 0 0 0 2.1-2.067v-.278h3.341a2.051 2.051 0 0 1 2.089 1.988v10.265a.675.675 0 0 0 .685.676.711.711 0 0 0 .725-.676V57.1a3.477 3.477 0 0 0-3.502-3.421zm8.413-6.246a6.652 6.652 0 0 0-5.877-6.6h-.766a.676.676 0 1 0 0 1.352 1.556 1.556 0 0 1 .6.081 5.161 5.161 0 0 1 1.047 10.064.736.736 0 0 0-.4.916.706.706 0 0 0 .685.437.45.45 0 0 0 .2-.039 6.505 6.505 0 0 0 4.516-6.21zm-1.691 7.4h-1.811a.7.7 0 0 0-.685.676.71.71 0 0 0 .685.717h1.811a1.836 1.836 0 0 1 1.852 1.83v9.31a.7.7 0 0 0 .685.676.709.709 0 0 0 .723-.676v-9.31a3.228 3.228 0 0 0-3.256-3.223zm-23.627 0h-1.888a3.2 3.2 0 0 0-3.221 3.223v9.31a.675.675 0 0 0 .685.676.7.7 0 0 0 .685-.676v-9.31a1.811 1.811 0 0 1 1.852-1.83h1.892a.71.71 0 0 0 .685-.717.7.7 0 0 0-.686-.676zm10.184-15.713a3.022 3.022 0 0 1 .6-.04 5.76 5.76 0 1 1-.6.04zm.6 12.651a7.023 7.023 0 1 0 0-14.044h-.766a7.039 7.039 0 0 0 .766 14.044zm-8.776 1.551a.735.735 0 0 0-.482-.875 5.122 5.122 0 0 1-3.985-5.013 5.2 5.2 0 0 1 4.669-5.17 1.651 1.651 0 0 1 .643-.081.677.677 0 0 0 0-1.352h-.8a6.686 6.686 0 0 0-5.877 6.6 6.574 6.574 0 0 0 4.996 6.37 1.787 1.787 0 0 0 .2.04.645.645 0 0 0 .644-.519z" class="cls-1" transform="translate(-164.619 -37.726)"/>
</svg>
