<svg xmlns="http://www.w3.org/2000/svg" width="45.523" height="30" viewBox="0 0 45.523 30">
    <path id="prefix__Path_7425" d="M146.477 1177.628a1.343 1.343 0 01-1.635.56l-6.749-4.142a.611.611 0 00-.922.258.747.747 0 00.209.993l6.29 3.929a1.29 1.29 0 01-.419 1.338 2.369 2.369 0 01-1.384.216l-5.66-3.366a.738.738 0 00-.712 1.293l5.45 3.238a1.7 1.7 0 01-.546 1.209 2.3 2.3 0 01-1.341.087h-.083l-4.738-2.331a.7.7 0 00-.923.346.747.747 0 00.336.992l4.192 2.073a3.107 3.107 0 01-.88.776 3.555 3.555 0 01-2.306.086h-.041a15.731 15.731 0 01-2.055-.56l.21-.346a2.7 2.7 0 00-.544-3.54 2.4 2.4 0 00-1.3-.6 2.893 2.893 0 00-1.006-2.677 2.347 2.347 0 00-1.426-.6 2.9 2.9 0 00-1.048-2.373 2.473 2.473 0 00-1.635-.6 2.386 2.386 0 00-1.8.907l-.378.56a2.144 2.144 0 00-.712-.907 2.519 2.519 0 00-1.635-.689 2.012 2.012 0 00-1.677.82c-.587-.82-1.048-1.3-1.048-1.382h-.042l-.88-.993 4.989-8.977c.587.3 1.133.733 1.467.862a7.639 7.639 0 002.81.735h.083a18.934 18.934 0 00-2.138 3.409.136.136 0 01-.041.087 2.767 2.767 0 00.083 2.158 1.8 1.8 0 001.552.6h.419c2.683-.216 4.445-2.589 4.989-3.366l1.3-.475c.8.433 3.271 1.771 5.282 3.066.085 0 .839.56.882.56 1.677 1.209 3.018 2.158 3.941 2.893.627.474 1.3 1.036 1.8 1.424a.041.041 0 01.041.042l1.048.864a1.267 1.267 0 01.331 1.543zm-26.83-.648v-.085l.88-1.167.125-.173a.85.85 0 01.629-.344 1.019 1.019 0 01.712.344 1.277 1.277 0 01.378 1.6l-.378.475-.083.173-.5.689a.838.838 0 01-.376.26c-.127 0-.21.087-.293.087a1.3 1.3 0 01-.755-.346 1.32 1.32 0 01-.338-1.514zm2.432 3.066c0-.044.041-.087.041-.173l.755-.993v-.042l.672-.864 1.635-2.373a.929.929 0 01.629-.26 1.354 1.354 0 01.8.26 1.279 1.279 0 01.293 1.6l-.085.216c-.126.042-.209.171-.334.344l-1.97 2.762-.5.649a1.507 1.507 0 01-.21.344.614.614 0 01-.168.173c-.168.042-.293.129-.376.129a1.111 1.111 0 01-.755-.344 1.339 1.339 0 01-.427-1.428zm4.192 3.842a1 1 0 01-.755-.3 1.353 1.353 0 01-.5-.993.972.972 0 01.042-.346.583.583 0 01.125-.216l.5-.733 1.928-2.72a2.7 2.7 0 00.251-.171c.085-.087.293-.087.421-.087a.98.98 0 01.712.258 1.276 1.276 0 01.376 1.6l-1.677 2.287-.8 1.124c-.042 0-.042.085-.042.085a.714.714 0 01-.581.211zm3.856 1.64a.725.725 0 01-.587.258 1.448 1.448 0 01-.755-.258 1.563 1.563 0 01-.5-1.166.626.626 0 01.166-.431l.127-.173.419-.6.922-1.294a.641.641 0 01.587-.3 1.152 1.152 0 01.8.3 1.341 1.341 0 01.376 1.553l-.5.691-.88 1.164zm-15.007-11.655l-2.935-1.855 7.3-13.339 2.893 1.855zm33.453-.691c-.168.173-.376.389-.587.647a6.926 6.926 0 01-1.257.906l-.714-.647c-.041-.042-.712-.6-2.054-1.684-.922-.647-2.181-1.64-3.815-2.762a9.008 9.008 0 01-1.048-.734c-2.474-1.511-5.408-3.022-5.576-3.109-.042-.087-.168-.087-.251-.087h-.253l-1.845.648a.608.608 0 00-.419.3s-1.635 2.762-3.982 2.935h-.714a1.541 1.541 0 01.085-.82c.5-.993 3.059-4.706 3.227-4.922.042-.042.042-.087.127-.173.293-.431 2.891-.949 6.5-.949h.083a17.115 17.115 0 014.109.649c.755.129 1.424.3 2.011.387a5.3 5.3 0 002.349-.474l4.906 9.064c-.042.005-.629.609-.882.825zm-3.9-12.648l2.935-1.855 7.253 13.339-2.893 1.855zm11.444 10.748l-7.293-13.295a1.358 1.358 0 00-1.216-.733 1.021 1.021 0 00-.714.215l-2.934 1.857a1.5 1.5 0 00-.546 1.942l.421.733a2.958 2.958 0 01-1.509.3 12.762 12.762 0 01-1.8-.346 16.677 16.677 0 00-4.445-.689H136c-2.474 0-6.751.258-7.673 1.6a3.927 3.927 0 01-.419.6c-.21-.042-.5-.042-.755-.085a10.3 10.3 0 01-2.347-.52c-.336-.216-.882-.56-1.469-.949l.293-.647a1.472 1.472 0 00-.461-1.942l-3.018-1.9a1.171 1.171 0 00-.712-.173 1.4 1.4 0 00-1.216.733l-7.253 13.295a1.551 1.551 0 00.5 2.029l2.934 1.857a1.456 1.456 0 00.714.171 1.39 1.39 0 001.216-.733l.587-1.08.544.648c.085.087.546.691 1.258 1.6l-.21.3a2.667 2.667 0 00.587 3.538 2.217 2.217 0 001.469.6 2.83 2.83 0 001.006 2.375 2.571 2.571 0 001.677.647c.125 0 .293-.043.461-.043a2.412 2.412 0 00.922 1.511 2.319 2.319 0 001.635.689 1.346 1.346 0 00.712-.171 3.1 3.1 0 00.922 1.424 2.473 2.473 0 001.635.6 2.13 2.13 0 001.762-.906l.376-.518c1.509.56 2.515.734 2.683.82a14.068 14.068 0 001.509.129 3.73 3.73 0 001.762-.389 5.616 5.616 0 001.677-1.6 3.825 3.825 0 001.928-.474 2.827 2.827 0 001.09-2.029 3.24 3.24 0 001.8-.6 2.638 2.638 0 00.963-1.986 2.613 2.613 0 002.642-3.842 9.28 9.28 0 001.173-.991c.293-.26.5-.475.712-.648a3.34 3.34 0 01.546-.56l.544.949a1.5 1.5 0 001.216.733 1.348 1.348 0 00.712-.171l2.978-1.857a1.551 1.551 0 00.507-2.018z" data-name="Path 7425" transform="translate(-110.783 -1157.254)" style="fill:#e87722;fill-rule:evenodd"/>
</svg>
