<svg xmlns="http://www.w3.org/2000/svg" width="29.721" height="29.722" viewBox="0 0 29.721 29.722">
  <defs>
    <style>
      .cls-1 {
        fill: #e87722;
        fill-rule: evenodd;
      }
    </style>
  </defs>
  <path id="transparency" class="cls-1" d="M376.42,1178.932h0a8.633,8.633,0,0,1-1.23.119,10.646,10.646,0,0,1-9.356-5.58l1.229.6a.636.636,0,0,0,.84-.329.617.617,0,0,0-.3-.836l-2.969-1.432a.667.667,0,0,0-.63,0,.736.736,0,0,0-.3.507l-.36,3.1a.658.658,0,0,0,.6.687H364a.622.622,0,0,0,.63-.568l.12-1.014a11.943,11.943,0,0,0,10.436,6.117,11.31,11.31,0,0,0,1.44-.089.663.663,0,0,0,.541-.717A.635.635,0,0,0,376.42,1178.932Zm-3.389-22.322h0a12.239,12.239,0,0,1,2.579-.3,10.944,10.944,0,0,1,9.057,4.625l-1.2-.656a.6.6,0,0,0-.871.208.616.616,0,0,0,.241.9l3.028,1.671a.611.611,0,0,0,.33.089.933.933,0,0,0,.27-.03c.061-.089.18-.119.241-.208a.614.614,0,0,0,.18-.657l.48-2.685a.67.67,0,0,0-.51-.776.729.729,0,0,0-.78.538l-.211,1.1a12.119,12.119,0,0,0-10.257-5.4,11.983,11.983,0,0,0-2.909.357.634.634,0,1,0,.33,1.224Zm14.576,11.818h0a3.25,3.25,0,0,1-3.3,3.222,3.233,3.233,0,0,1-.36-6.446,1.469,1.469,0,0,1,.36-.03A3.275,3.275,0,0,1,387.607,1168.429Zm-3.808-4.507h0a4.512,4.512,0,0,0-4.049,4.507,4.574,4.574,0,0,0,9.147,0,4.533,4.533,0,0,0-4.588-4.537A2.927,2.927,0,0,0,383.8,1163.922Zm.96,11.22h-.81a.223.223,0,0,1-.181-.149h1.171A.168.168,0,0,1,384.758,1175.142Zm3.269-1.432h-7.349a2.336,2.336,0,0,0-2.339,2.327v5.283a.645.645,0,1,0,1.29,0v-5.283a1.06,1.06,0,0,1,1.049-1.044h1.8a1.494,1.494,0,0,0,1.471,1.491h.81a1.493,1.493,0,0,0,1.469-1.491h1.8a1.06,1.06,0,0,1,1.049,1.044v5.283a.66.66,0,0,0,1.319,0v-5.283A2.342,2.342,0,0,0,388.027,1173.71Zm-3.269,2.865h-.81a1.521,1.521,0,0,0-1.471,1.521v3.224a.646.646,0,0,0,.661.656.638.638,0,0,0,.629-.656V1178.1a.191.191,0,0,1,.181-.179h.81a.173.173,0,0,1,.18.179v3.224a.66.66,0,0,0,1.319,0V1178.1A1.545,1.545,0,0,0,384.758,1176.575Zm-16.8-6.208h0a.657.657,0,0,0,.66-.626v-3.253a1.5,1.5,0,0,0-1.5-1.492h-.78a1.547,1.547,0,0,0-1.53,1.492v3.253a.665.665,0,0,0,.691.626.657.657,0,0,0,.66-.626v-3.253c0-.119.06-.208.18-.208h.78a.225.225,0,0,1,.21.208v3.253A.612.612,0,0,0,367.963,1170.368Zm-1.649-16.771h.389a3.238,3.238,0,1,1,0,6.475,3.248,3.248,0,0,1-.389-6.475Zm.389,7.759h0a4.551,4.551,0,1,0,0-9.1,1.582,1.582,0,0,0-.539.06,4.536,4.536,0,0,0,.539,9.042Zm.63,2.03h0c-.061.119-.12.178-.21.178h-.78a.158.158,0,0,1-.18-.178Zm-.99,1.462h.78a1.474,1.474,0,0,0,1.5-1.462h1.8a1.04,1.04,0,0,1,1.049,1.044v5.313a.613.613,0,0,0,.63.626.62.62,0,0,0,.66-.626v-5.312a2.335,2.335,0,0,0-2.339-2.327h-7.378a2.361,2.361,0,0,0-2.369,2.327v5.313a.665.665,0,0,0,.689.626.657.657,0,0,0,.66-.626v-5.312a1.016,1.016,0,0,1,1.019-1.044h1.77A1.563,1.563,0,0,0,366.343,1164.847Z" transform="translate(-360.675 -1152.254)"/>
</svg>
